# Blender 3.6.7
# www.blender.org
mtllib gravestone.mtl
o gravestone
v -0.746582 -0.761630 0.261985
v -0.745407 -0.761630 -0.265308
v 0.745407 -0.761630 0.265308
v 0.746582 -0.761630 -0.261985
v -0.383974 1.460720 0.262793
v -0.746582 1.076335 0.261985
v -0.745407 1.076335 -0.265308
v -0.382800 1.460720 -0.264500
v 0.745407 1.076335 0.265308
v 0.382800 1.460720 0.264500
v 0.383974 1.460720 -0.262793
v 0.746582 1.076335 -0.261985
v -0.745407 -0.901419 -0.265308
v -0.746582 -0.901419 0.261985
v 0.746582 -0.901419 -0.261985
v 0.745407 -0.901419 0.265308
v -0.928376 -0.761630 -0.265716
v -0.929550 -0.761630 0.261578
v 0.928376 -0.761630 0.265716
v 0.929550 -0.761630 -0.261578
v -0.928376 -0.901419 -0.265716
v -0.929550 -0.901419 0.261578
v 0.928376 -0.901419 0.265716
v 0.929550 -0.901419 -0.261578
v 0.746782 -0.761630 -0.351765
v -0.745208 -0.761630 -0.355088
v -0.746782 -0.761630 0.351765
v 0.745208 -0.761630 0.355088
v 0.746782 -0.901419 -0.351765
v -0.745208 -0.901419 -0.355088
v -0.746782 -0.901419 0.351765
v 0.745208 -0.901419 0.355088
v -0.929750 -0.761630 0.351358
v -0.929750 -0.901419 0.351358
v 0.928176 -0.901419 0.355496
v 0.928176 -0.761630 0.355496
v 0.929750 -0.761630 -0.351358
v 0.929750 -0.901419 -0.351358
v -0.928176 -0.901419 -0.355496
v -0.928176 -0.761630 -0.355496
vn -0.0000 1.0000 -0.0000
vn 1.0000 -0.0000 0.0022
vn -1.0000 -0.0000 -0.0022
vn 0.0022 -0.0000 -1.0000
vn -0.7274 0.6862 -0.0016
vn 0.7274 0.6862 0.0016
vn -0.0022 -0.0000 1.0000
vn -0.0000 -1.0000 -0.0000
vt 0.685759 0.500000
vt 0.814241 0.500000
vt 0.814241 0.750000
vt 0.685759 0.750000
vt 0.375000 0.500000
vt 0.564241 0.500000
vt 0.564241 0.750000
vt 0.375000 0.750000
vt 0.375000 0.000000
vt 0.564241 0.000000
vt 0.564241 0.250000
vt 0.375000 0.250000
vt 0.314327 0.406321
vt 0.346179 0.406321
vt 0.346179 0.461832
vt 0.314327 0.461832
vt 0.625000 0.310759
vt 0.625000 0.439241
vt 0.625000 0.000000
vt 0.625000 0.250000
vt 0.585169 0.753100
vt 0.625000 0.810759
vt 0.625000 0.939241
vt 0.564241 1.000000
vt 0.375000 1.000000
vt 0.054595 0.406321
vt 0.314327 0.080294
vt 0.054595 0.080294
vt 0.314327 0.253016
vt 0.314327 0.234246
vt 0.358550 0.234246
vt 0.358550 0.253016
vt 0.022743 0.080294
vt 0.022743 0.406321
vt 0.346179 0.080294
vt 0.054595 0.253016
vt 0.054595 0.234246
vt 0.314327 0.024782
vt 0.346179 0.024782
vt 0.010372 0.253016
vt 0.010372 0.234246
vt 0.054595 0.461832
vt 0.022743 0.461832
vt 0.022743 0.234246
vt 0.022743 0.253016
vt 0.346179 0.234246
vt 0.346179 0.253016
vt 0.054595 0.024782
vt 0.022743 0.024782
s 0
usemtl Material.001
f 11/1/1 8/2/1 5/3/1 10/4/1
f 4/5/2 12/6/2 9/7/2 3/8/2
f 1/9/3 6/10/3 7/11/3 2/12/3
f 4/13/1 20/14/1 37/15/1 25/16/1
f 2/12/4 7/11/4 8/17/4 11/18/4 12/6/4 4/5/4
f 5/19/5 8/20/5 7/11/5 6/10/5
f 11/1/6 10/4/6 9/7/6 12/6/6
f 3/8/7 9/21/7 10/22/7 5/23/7 6/24/7 1/25/7
f 13/26/8 15/13/8 16/27/8 14/28/8
f 20/29/2 24/30/2 38/31/2 37/32/2
f 13/26/8 14/28/8 22/33/8 21/34/8
f 16/27/8 15/13/8 24/14/8 23/35/8
f 20/29/2 19/36/2 23/37/2 24/30/2
f 18/36/3 17/29/3 21/30/3 22/37/3
f 19/35/1 3/27/1 28/38/1 36/39/1
f 23/37/2 19/36/2 36/40/2 35/41/2
f 17/34/1 2/26/1 26/42/1 40/43/1
f 4/13/1 3/27/1 19/35/1 20/14/1
f 2/26/1 4/13/1 25/16/1 26/42/1
f 1/28/1 2/26/1 17/34/1 18/33/1
f 28/29/7 27/36/7 31/37/7 32/30/7
f 26/36/4 25/29/4 29/30/4 30/37/4
f 26/36/4 30/37/4 39/44/4 40/45/4
f 28/29/7 32/30/7 35/46/7 36/47/7
f 29/30/4 25/29/4 37/47/4 38/46/4
f 31/37/7 27/36/7 33/45/7 34/44/7
f 3/27/1 1/28/1 27/48/1 28/38/1
f 21/30/3 17/29/3 40/32/3 39/31/3
f 1/28/1 18/33/1 33/49/1 27/48/1
f 15/13/8 13/26/8 30/42/8 29/16/8
f 24/14/8 15/13/8 29/16/8 38/15/8
f 16/27/8 23/35/8 35/39/8 32/38/8
f 14/28/8 16/27/8 32/38/8 31/48/8
f 22/33/8 14/28/8 31/48/8 34/49/8
f 13/26/8 21/34/8 39/43/8 30/42/8
f 18/36/3 22/37/3 34/41/3 33/40/3
